<?xml version="1.0" encoding="utf-8"?>
<!-- Generator: Adobe Illustrator 24.0.0, SVG Export Plug-In . SVG Version: 6.00 Build 0)  -->
<svg version="1.1" xmlns="http://www.w3.org/2000/svg" xmlns:xlink="http://www.w3.org/1999/xlink" x="0px" y="0px"
	 viewBox="0 0 365.1 114.2" style="enable-background:new 0 0 365.1 114.2;" xml:space="preserve">
<style type="text/css">
	.st0{display:none;}
	.st1{fill:#D1D0D1;}
	.st2{fill:#FFFFFF;}
	.st3{fill:none;stroke:#000000;stroke-width:3;stroke-miterlimit:10;}
	.st4{fill:#FFFFFF;stroke:#000000;stroke-width:3;stroke-miterlimit:10;}
	.st5{fill:#D1CFD1;stroke:#000000;stroke-width:3;stroke-miterlimit:10;}
	.st6{fill:#5C5C5C;}
	.st7{fill:#232A55;}
	.st8{fill:#F0F0F2;}
	.st9{fill:#1E1E1C;}
	.st10{fill:none;stroke:#242B56;stroke-width:3;stroke-miterlimit:10;}
	.st11{fill:#FFFFFF;stroke:#1E1E1C;stroke-width:3;stroke-miterlimit:10;}
	.st12{fill:#242B56;}
	.st13{fill:#F0F0F2;stroke:#242B56;stroke-width:3;stroke-miterlimit:10;}
	.st14{fill:none;stroke:#EAE24A;stroke-miterlimit:10;}
	.st15{fill:#EAE24A;}
	.st16{fill:#010202;}
</style>
<g id="Vrstva_2" class="st0">
</g>
<g id="Vrstva_1">
	<rect width="365.1" height="114.2"/>
	<g>
		<path class="st2" d="M110.9,91.1h-4.6V71.4h10.1c2.5,0,4.5,0.2,6,0.7c3,1,4.3,3,4.3,6.2c0,4.4-3.2,6.7-9.8,6.7h-5.9V91.1z
			 M110.9,81.1h5.6c4,0,5.4-0.6,5.4-2.8c0-0.9-0.2-1.6-0.6-2c-0.8-0.9-2.4-1-4.9-1h-5.5V81.1z"/>
		<path class="st2" d="M134.7,90.5c-3.6-1.4-5.6-4.4-5.6-9.1v-0.1c0-2.2,0.5-4.1,1.5-5.6c2-3.1,5.7-4.8,10.2-4.8
			c2.3,0,4.3,0.4,6.1,1.2c3.6,1.6,5.7,4.7,5.7,9.2v0.2c0,2.3-0.5,4.2-1.5,5.7c-2,3-5.6,4.5-10.3,4.5
			C138.5,91.6,136.5,91.3,134.7,90.5z M144.6,86.8c2.1-0.7,3.3-2.5,3.3-5.4v0c0-1.5-0.3-2.8-0.9-3.7c-1.2-1.9-3.2-2.6-6.2-2.6
			c-4.4,0-7,1.8-7,6.3v0c0,4.1,2.6,6,7,6C142.3,87.4,143.6,87.2,144.6,86.8z"/>
		<path class="st2" d="M164.6,91.1H160l-6.4-19.7h4.8l4.5,14.2l6.5-14.2h3.7l5.7,14.2l5.5-14.2h4.8l-8,19.7h-4.4l-5.4-13.9
			L164.6,91.1z"/>
		<path class="st2" d="M191.3,91.1V71.4h18.8v3.9h-14.4v4h12.2v3.9h-12.2V87h14.9v4H191.3z"/>
		<path class="st2" d="M218.5,91.1h-4.6V71.4h10.4c7,0,9.8,1.9,9.8,6.2c0,3-1.4,4.5-4.3,5.2c2.9,0.6,4.2,2.2,4.2,5.7v1.3
			c0,0.5,0.1,1,0.5,1.3h-4.8c-0.5-0.2-0.6-0.8-0.6-1.3v-1.2c0-1-0.1-1.8-0.4-2.3c-0.6-1.1-2-1.5-4.5-1.5h-5.6V91.1z M218.5,80.7h5.5
			c1.1,0,1.9-0.1,2.7-0.1c1.6-0.2,2.5-0.9,2.5-2.4v-0.4c0-0.7-0.2-1.3-0.5-1.7c-0.7-0.7-2.2-0.9-4.5-0.9h-5.7V80.7z"/>
		<g>
			<path class="st2" d="M113.2,63.2h-7V33h8.2l13.8,24l14.2-24h7.7v30.3h-6.8V42.8l-11.6,20.4h-6.1l-12.3-20.3V63.2z"/>
			<path class="st2" d="M177.5,62.9c-5.1-1.7-7.6-5-8.7-10.4h7.7c1,4.2,4.8,5.4,10.9,5.4c5.6,0,8.1-1.1,8.1-3.6c0-1-0.3-1.7-1-2.1
				c-1.4-0.9-4.5-1.1-10.7-1.4c-3.1-0.2-5.6-0.6-7.6-1.2c-4-1.2-5.9-3.6-5.9-7.9c0-5.9,5-9.6,14.9-9.6c10.5,0,16.1,2.9,17.5,10.6
				h-7.6c-0.9-3.9-4.3-4.6-10.1-4.6c-5.7,0-7.5,1.3-7.5,3.4c0,1.1,0.3,1.8,1.7,2.3c1.3,0.5,3.8,0.9,8,1c3.7,0.2,6.6,0.6,8.9,1.2
				c4.6,1.2,6.6,3.6,6.6,7.8c0,6.5-4.8,10.3-15.4,10.3C183.3,64.1,180,63.8,177.5,62.9z"/>
			<path class="st2" d="M223,63.2h-7.3V39h-10.9V33h29.6V39H223V63.2z"/>
			<path class="st2" d="M246.3,63.2h-7.1V33h15.9c10.7,0,15,2.9,15,9.6c0,4.5-2.1,6.9-6.6,8c4.5,1,6.4,3.4,6.4,8.8v2
				c0,0.7,0.1,1.6,0.7,2h-7.4c-0.7-0.3-0.8-1.2-0.8-2v-1.9c0-1.5-0.2-2.7-0.7-3.6c-1-1.7-3-2.3-6.9-2.3h-8.5V63.2z M246.3,47.4h8.5
				c1.6,0,3-0.1,4.2-0.2c2.5-0.3,3.9-1.3,3.9-3.7v-0.6c0-1.1-0.3-2-0.8-2.5c-1.1-1.1-3.4-1.4-7-1.4h-8.8V47.4z"/>
			<path class="st2" d="M283.6,56.7l-3.1,6.6h-7.7L288.1,33h7.5l15.6,30.3h-7.6l-3.2-6.6H283.6z M286.4,50.9h11.1l-5.6-11.5
				L286.4,50.9z"/>
			<path class="st2" d="M314.6,33h7.2v23.6H342v6.7h-27.3V33z"/>
			<path class="st2" d="M156.2,56.6L156.2,56.6V39.3l0,0V33h6.8v6.3l0,0v17.3l0,0v6.6h-6.8V56.6z"/>
		</g>
	</g>
	<g>
		<path class="st6" d="M64.6,88.1h-8.4V74.6c2.7,1.3,5.3,2.4,7.8,3.4L64.6,88.1z"/>
		<path class="st6" d="M63.9,74.7c-1.4-0.6-2.8-1.2-4.2-1.8c0.5-0.3,1.1-0.5,1.6-0.8c0.8-0.4,1.6-0.8,2.4-1.3L63.9,74.7z"/>
		<path class="st6" d="M63.4,67.4L63.4,67.4c-1.2,0.7-2.4,1.3-3.6,2c-1.2,0.6-2.4,1.3-3.6,1.8h0V53.8l0,0c1.2,0.6,2.4,1.2,3.6,1.9
			c1,0.5,2,1.1,3,1.6L63.4,67.4z"/>
		<path class="st6" d="M62.6,53.7c-0.5-0.2-0.9-0.5-1.4-0.7c-0.5-0.3-1.1-0.5-1.6-0.8c0.9-0.4,1.9-0.8,2.8-1.2L62.6,53.7z"/>
		<path class="st6" d="M62.3,47.7L62.3,47.7c-2,0.8-4,1.7-6.1,2.7v-9.1h5.7L62.3,47.7z"/>
		<rect x="56.2" y="35.9" class="st6" width="8.5" height="2.4"/>
		<path class="st6" d="M80.7,44.2c0,0.1,0,0.2,0,0.3c0,0,0,0.1,0,0.2c0,0,0,0,0,0c0,0.1,0,0.2-0.1,0.3c0,0,0,0,0,0
			c0,0.1-0.1,0.2-0.2,0.3c-0.1,0.1-0.1,0.2-0.2,0.3c0,0-0.1,0.1-0.1,0.1L80,45.9c-0.1,0.1-0.1,0.1-0.2,0.2c-0.1,0.1-0.1,0.1-0.2,0.2
			c-0.1,0-0.1,0.1-0.2,0.1c-0.1,0-0.2,0.1-0.2,0.1c-0.1,0-0.1,0-0.2,0.1c-0.1,0-0.2,0-0.3,0.1c-0.1,0-0.2,0-0.3,0
			c-0.1,0-0.2,0-0.3,0c-0.1,0-0.2,0-0.3-0.1c-0.1,0-0.2-0.1-0.3-0.1c0,0,0,0,0,0c-0.1,0-0.1,0-0.2-0.1c-0.1,0-0.1-0.1-0.2-0.1
			c0,0,0,0,0,0c-0.1,0-0.1-0.1-0.2-0.1c-0.1,0-0.1-0.1-0.2-0.2c-0.1,0-0.1-0.1-0.2-0.2c-0.1-0.1-0.1-0.2-0.2-0.3
			c-0.1-0.1-0.1-0.2-0.1-0.3c0,0-0.1-0.1-0.1-0.1c0,0,0-0.1,0-0.2c0-0.1-0.1-0.2-0.1-0.3v0c0-0.1,0-0.2,0-0.3c0-0.2,0-0.3,0-0.5
			c0-0.1,0-0.2,0-0.2c0-0.1,0.1-0.1,0.1-0.2c0,0,0,0,0,0c0,0,0-0.1,0.1-0.1c0,0,0-0.1,0-0.1v0c0-0.1,0.1-0.1,0.1-0.2
			c0.1-0.1,0.2-0.3,0.3-0.3c0.1-0.1,0.1-0.1,0.2-0.2c0.1-0.1,0.1-0.1,0.2-0.1c0.1-0.1,0.3-0.2,0.4-0.2c0.1,0,0.2-0.1,0.2-0.1
			c0.1,0,0.2-0.1,0.3-0.1c0.1,0,0.2,0,0.3,0c0.2,0,0.3,0,0.5,0c0,0,0.1,0,0.1,0c0,0,0,0,0,0c0.1,0,0.2,0.1,0.3,0.1
			c0.1,0,0.2,0.1,0.3,0.1c0.1,0,0.1,0.1,0.2,0.1c0.1,0,0.1,0.1,0.2,0.2c0,0,0,0,0,0c0,0,0.1,0,0.1,0.1c0,0,0,0,0.1,0.1
			c0,0,0.1,0.1,0.1,0.1c0,0,0.1,0.1,0.1,0.2c0,0.1,0.1,0.1,0.1,0.2c0.1,0.1,0.2,0.3,0.2,0.5c0,0.1,0,0.1,0,0.2s0,0.1,0,0.2
			C80.7,44,80.7,44.1,80.7,44.2z"/>
		<path class="st6" d="M31.3,54.8L31.3,54.8c0,1.2-0.8,2.2-1.9,2.4c-0.1,0-0.3,0-0.4,0c-1.3,0-2.3-1.1-2.3-2.3c0-0.2,0-0.3,0.1-0.5
			c0.2-1,1.2-1.8,2.3-1.8c0,0,0.1,0,0.1,0C30.3,52.6,31.3,53.6,31.3,54.8z"/>
	</g>
	<rect x="53.9" y="60.1" class="st2" width="4.7" height="4.7"/>
	<path class="st2" d="M82.4,67.3c-1.7-1.6-3.7-3.2-5.9-4.8c2.2-1.6,4.2-3.2,5.9-4.8c5.8-5.3,8-9.5,6.4-12.5
		c-0.9-1.6-2.7-2.5-5.5-2.7c-0.7-2.1-2.7-3.7-5.1-3.7c-2.9,0-5.2,2.3-5.3,5.2c-2.4,0.7-5.1,1.5-7.8,2.5l-0.3-5.3h2.8v-8.4h-5.1v-4.6
		l-6.4-5.3l-6.4,5.3v4.6h-5.1v8.4h2.8l-0.3,5.3c-11.4-4.3-21.3-5.8-23.6-1.3c-0.3,0.6-0.5,1.3-0.5,2c0,1.3,0.6,2.9,1.6,4.5
		c-0.7,0.9-1.1,2-1.1,3.2c0,2.9,2.4,5.3,5.3,5.3c1.1,0,2.1-0.3,2.9-0.9c1.2,1,2.6,2.1,4,3.2C27.1,69,21.4,75.6,23.6,79.8
		c1,1.9,3.3,2.7,6.6,2.7c4,0,9.3-1.3,15.2-3.3l-0.7,11.9h23.2l-0.7-11.9c2.8,1,5.4,1.8,7.8,2.3c2.9,0.7,5.4,1,7.4,1
		c3.4,0,5.5-0.9,6.5-2.7C90.4,76.8,88.2,72.6,82.4,67.3z M31.3,54.9c0,1.1-0.8,2.1-1.9,2.3c-0.1,0-0.3,0-0.4,0
		c-1.3,0-2.3-1.1-2.3-2.3c0-0.2,0-0.3,0.1-0.5c0.2-1,1.2-1.8,2.3-1.8c0,0,0.1,0,0.1,0C30.3,52.6,31.3,53.6,31.3,54.9L31.3,54.9z
		 M45.5,75.9c-10.8,4-18.2,4.5-19.3,2.5c-1-2,3.3-7.5,12.2-14c2.3,1.6,4.8,3.2,7.4,4.7L45.5,75.9z M46.1,65.7
		c-1.8-1.1-3.5-2.2-5-3.2c1.7-1.1,3.5-2.3,5.4-3.5L46.1,65.7z M46.7,55.5c-2.9,1.7-5.7,3.4-8.2,5.2c-1.7-1.2-3.3-2.5-4.6-3.6
		c0.3-0.7,0.5-1.4,0.5-2.2c0-3-2.4-5.3-5.3-5.3c-0.7,0-1.3,0.1-1.9,0.4c-0.9-1.4-1.2-2.6-0.8-3.2c1.1-2.1,9.1-1.4,20.8,3.1
		L46.7,55.5z M76,43.8c0-0.1,0-0.2,0-0.2c0-0.1,0.1-0.1,0.1-0.2c0,0,0,0,0,0c0,0,0-0.1,0.1-0.1c0,0,0-0.1,0-0.1v0
		c0-0.1,0.1-0.1,0.1-0.2c0.1-0.1,0.2-0.3,0.3-0.3c0.1-0.1,0.1-0.1,0.2-0.2c0.1-0.1,0.1-0.1,0.2-0.1c0.1-0.1,0.3-0.2,0.4-0.2
		c0.1,0,0.2-0.1,0.2-0.1c0.1,0,0.2-0.1,0.3-0.1c0.1,0,0.2,0,0.3,0c0.2,0,0.3,0,0.5,0c0,0,0.1,0,0.1,0c0,0,0,0,0,0
		c0.1,0,0.2,0.1,0.3,0.1c0.1,0,0.2,0.1,0.3,0.1c0.1,0,0.1,0.1,0.2,0.1c0.1,0,0.1,0.1,0.2,0.2c0,0,0,0,0,0c0,0,0.1,0,0.1,0.1
		c0,0,0,0,0.1,0.1c0,0,0.1,0.1,0.1,0.1c0,0,0.1,0.1,0.1,0.2c0,0.1,0.1,0.1,0.1,0.2c0.1,0.1,0.2,0.3,0.2,0.5c0,0.1,0,0.1,0,0.2
		s0,0.1,0,0.2c0,0.1,0,0.2,0,0.3c0,0.1,0,0.2,0,0.3c0,0,0,0.1,0,0.2c0,0,0,0,0,0c0,0.1,0,0.2-0.1,0.3c0,0,0,0,0,0
		c0,0.1-0.1,0.2-0.2,0.3c-0.1,0.1-0.1,0.2-0.2,0.3c0,0-0.1,0.1-0.1,0.1L80,45.9c-0.1,0.1-0.1,0.1-0.2,0.2c-0.1,0.1-0.1,0.1-0.2,0.2
		c-0.1,0-0.1,0.1-0.2,0.1c-0.1,0-0.2,0.1-0.2,0.1c-0.1,0-0.1,0-0.2,0.1c-0.1,0-0.2,0-0.3,0.1c-0.1,0-0.2,0-0.3,0c-0.1,0-0.2,0-0.3,0
		c-0.1,0-0.2,0-0.3-0.1c-0.1,0-0.2-0.1-0.3-0.1c0,0,0,0,0,0c-0.1,0-0.1,0-0.2-0.1c-0.1,0-0.1-0.1-0.2-0.1c0,0,0,0,0,0
		c-0.1,0-0.1-0.1-0.2-0.1c-0.1,0-0.1-0.1-0.2-0.2c-0.1,0-0.1-0.1-0.2-0.2c-0.1-0.1-0.1-0.2-0.2-0.3c-0.1-0.1-0.1-0.2-0.1-0.3
		c0,0-0.1-0.1-0.1-0.1c0,0,0-0.1,0-0.2c0-0.1-0.1-0.2-0.1-0.3v0c0-0.1,0-0.2,0-0.3C76,44.1,76,43.9,76,43.8z M73.8,46.9
		c0.9,1.6,2.6,2.6,4.6,2.6c2.5,0,4.5-1.7,5.2-4c1.5,0.1,2.4,0.5,2.7,1.1c0.6,1.2-0.9,4.4-5.8,8.8c-1.8,1.7-4,3.4-6.4,5.2
		c-2.6-1.8-5.3-3.5-8.3-5.2l-0.3-5.7C68.3,48.6,71.2,47.6,73.8,46.9z M52.6,69.4c-1.2-0.7-2.4-1.3-3.6-2l0.6-10.1c1-0.6,2-1.1,3-1.6
		c1.2-0.6,2.4-1.3,3.6-1.8l0,0c1.2,0.6,2.4,1.2,3.6,1.9c1,0.5,2,1.1,3,1.6l0.6,10.1v0c-1.2,0.7-2.4,1.3-3.6,2
		c-1.2,0.6-2.4,1.3-3.6,1.8h0C55,70.6,53.8,70,52.6,69.4z M52.8,72.9c-1.5,0.7-2.9,1.3-4.2,1.8l0.2-3.9c0.8,0.4,1.6,0.9,2.4,1.3
		C51.7,72.3,52.2,72.6,52.8,72.9z M62.3,47.8c-2,0.8-4,1.7-6.1,2.7c-2-1-4.1-1.9-6.1-2.7l0.4-6.4h11.4L62.3,47.8L62.3,47.8z
		 M62.5,50.9l0.2,2.8c-0.5-0.2-0.9-0.5-1.4-0.7c-0.5-0.3-1.1-0.5-1.6-0.8C60.6,51.7,61.6,51.3,62.5,50.9z M52.8,52.2
		c-0.5,0.3-1.1,0.6-1.6,0.8c-0.5,0.3-0.9,0.5-1.4,0.7l0.2-2.8C50.9,51.3,51.8,51.7,52.8,52.2z M61.3,72c0.8-0.4,1.6-0.8,2.4-1.3
		l0.2,3.9c-1.4-0.6-2.8-1.2-4.2-1.8C60.2,72.6,60.7,72.3,61.3,72z M52.8,29.8l3.4-2.8l3.4,2.8v3.2h-6.8V29.8z M47.7,35.9h17v2.4h-17
		V35.9z M48.4,78c2.6-1,5.2-2.1,7.8-3.4c2.7,1.3,5.3,2.4,7.8,3.4l0.6,10.1H47.8L48.4,78z M66,59.1c1.9,1.1,3.7,2.3,5.4,3.4
		c-1.6,1.1-3.3,2.2-5,3.2L66,59.1z M86.2,78.4c-0.6,1.2-4.1,1.7-10.6,0.2C73,77.9,70,77,66.9,75.9l-0.4-6.8v0
		c2.7-1.5,5.2-3.1,7.5-4.7c2.4,1.7,4.6,3.5,6.4,5.2C85.3,74,86.8,77.2,86.2,78.4z"/>
</g>
</svg>
